<svg xmlns="http://www.w3.org/2000/svg" xmlns:xlink="http://www.w3.org/1999/xlink" width="250" height="250.001" viewBox="0 0 250 250.001">
  <defs>
    <clipPath id="clip-path">
      <rect id="Rectangle_638" data-name="Rectangle 638" width="250" height="250.001" fill="none"/>
    </clipPath>
    <clipPath id="clip-path-2">
      <rect id="Rectangle_746" data-name="Rectangle 746" width="104.643" height="148.623" fill="none"/>
    </clipPath>
    <clipPath id="clip-path-3">
      <rect id="Rectangle_745" data-name="Rectangle 745" width="104.642" height="148.622" fill="none"/>
    </clipPath>
    <clipPath id="clip-path-4">
      <rect id="Rectangle_744" data-name="Rectangle 744" width="52.978" height="147.627" fill="none"/>
    </clipPath>
  </defs>
  <g id="Group_10334" data-name="Group 10334" transform="translate(-1055 -3247)">
    <g id="Group_9919" data-name="Group 9919" transform="translate(1055 3247)">
      <g id="Group_9912" data-name="Group 9912" clip-path="url(#clip-path)">
        <path id="Path_2982" data-name="Path 2982" d="M250,125A125,125,0,1,1,125,0,125,125,0,0,1,250,125" transform="translate(0 0)" fill="#86c26e"/>
      </g>
    </g>
    <g id="Group_9927" data-name="Group 9927" transform="translate(1128 3298)">
      <g id="Group_9926" data-name="Group 9926" clip-path="url(#clip-path-2)">
        <g id="Group_9925" data-name="Group 9925" transform="translate(0 0.001)">
          <g id="Group_9924" data-name="Group 9924" clip-path="url(#clip-path-3)">
            <path id="Path_3050" data-name="Path 3050" d="M98.4,77.113h0A52.323,52.323,0,1,0,6.932,78.345H6.923L7,78.451a51.82,51.82,0,0,0,3.675,5.537l42.946,64.635L94.808,82.853a52.952,52.952,0,0,0,3.525-5.632Z" transform="translate(0 -0.001)" fill="#dc2132"/>
            <path id="Path_3051" data-name="Path 3051" d="M80.287,43.989A34.408,34.408,0,1,1,45.416,10.048,34.405,34.405,0,0,1,80.287,43.989" transform="translate(6.409 5.609)" fill="#fff"/>
            <path id="Path_3052" data-name="Path 3052" d="M53.421,37.168A14.629,14.629,0,1,1,38.6,22.736,14.633,14.633,0,0,1,53.421,37.168" transform="translate(13.496 12.697)" fill="#dc2132"/>
            <g id="Group_9923" data-name="Group 9923" transform="translate(0 0.03)" style="mix-blend-mode: multiply;isolation: isolate">
              <g id="Group_9922" data-name="Group 9922">
                <g id="Group_9921" data-name="Group 9921" clip-path="url(#clip-path-4)">
                  <path id="Path_3053" data-name="Path 3053" d="M50.988.02A52.308,52.308,0,0,0,6.932,78.334H6.924L7,78.44a51.821,51.821,0,0,0,3.675,5.537l42.305,63.671Z" transform="translate(0 -0.02)" fill="#a3a3a3"/>
                </g>
              </g>
            </g>
          </g>
        </g>
      </g>
    </g>
  </g>
</svg>
