<svg id="Group_9920" data-name="Group 9920" xmlns="http://www.w3.org/2000/svg" xmlns:xlink="http://www.w3.org/1999/xlink" width="250" height="250.001" viewBox="0 0 250 250.001">
  <defs>
    <clipPath id="clip-path">
      <rect id="Rectangle_638" data-name="Rectangle 638" width="250" height="250.001" fill="none"/>
    </clipPath>
  </defs>
  <g id="Group_9912" data-name="Group 9912" clip-path="url(#clip-path)">
    <path id="Path_2982" data-name="Path 2982" d="M250,125A125,125,0,1,1,125,0,125,125,0,0,1,250,125" transform="translate(0 -0.002)" fill="#6198a0"/>
    <g id="Group_9928" data-name="Group 9928" transform="translate(22053.502 20844)">
      <g id="Group_9931" data-name="Group 9931" transform="matrix(0.951, -0.309, 0.309, 0.951, -21993.465, -20721.285)">
        <g id="Group_9932" data-name="Group 9932" transform="translate(0 0)">
          <rect id="Rectangle_749" data-name="Rectangle 749" width="61.9" height="133.709" transform="translate(3.383 65.02) rotate(-82.277)" fill="#627204"/>
          <path id="Path_3063" data-name="Path 3063" d="M4.186,0,137.549,8.876l-4.115,61.775L0,61.7Z" transform="translate(2.021 2.381)" fill="#798d03" fill-rule="evenodd"/>
          <rect id="Rectangle_750" data-name="Rectangle 750" width="133.723" height="61.919" transform="translate(0 0)" fill="#94ac04"/>
          <path id="Path_3064" data-name="Path 3064" d="M11.257,0H112.865a11.272,11.272,0,0,0,11.259,11.257V40.269a11.273,11.273,0,0,0-11.259,11.257H11.257A11.273,11.273,0,0,0,0,40.269V11.257A11.271,11.271,0,0,0,11.257,0" transform="translate(4.837 5.194)" fill="#bad60f" fill-rule="evenodd"/>
          <path id="Path_3065" data-name="Path 3065" d="M17.608,0A17.609,17.609,0,1,1,0,17.611,17.574,17.574,0,0,1,17.608,0" transform="translate(49.29 13.349)" fill="#eaf18b" fill-rule="evenodd"/>
          <path id="Path_3066" data-name="Path 3066" d="M1.37,0H29.443a1.05,1.05,0,0,1,1.084,1.01,1.11,1.11,0,0,1-1.084,1.081H1.37A1.108,1.108,0,0,1,.289,1.01,1.048,1.048,0,0,1,1.37,0M1.01,7.144H29.154a1.085,1.085,0,0,1,0,2.165H1.01a1.085,1.085,0,0,1,0-2.165M79.816,0h28.073a1.049,1.049,0,0,1,1.081,1.01,1.11,1.11,0,0,1-1.081,1.081H79.816A1.11,1.11,0,0,1,78.732,1.01,1.05,1.05,0,0,1,79.816,0m-.362,7.144H107.6a1.085,1.085,0,0,1,0,2.165H79.454a1.085,1.085,0,0,1,0-2.165" transform="translate(12.414 26.34)" fill="#eaf18b" fill-rule="evenodd"/>
          <path id="Path_3067" data-name="Path 3067" d="M14.217,0A14.144,14.144,0,1,1,0,14.144,14.167,14.167,0,0,1,14.217,0" transform="translate(52.681 16.813)" fill="#94ac04" fill-rule="evenodd"/>
          <path id="Path_3068" data-name="Path 3068" d="M2.092,12.267A4.845,4.845,0,0,1,.577,10.609,6.023,6.023,0,0,1,0,7.648,5.477,5.477,0,0,1,.937,4.475,4.5,4.5,0,0,1,3.751,2.669V0H7.433V2.525a29.5,29.5,0,0,1,3.1.433L9.958,7.435A19.707,19.707,0,0,0,6.2,6.784c-.866,0-1.3.36-1.3,1.008a1.244,1.244,0,0,0,.577.868c.433.215.939.506,1.588.8.577.289,1.155.646,1.732,1.008A5.892,5.892,0,0,1,10.318,12.2a5.69,5.69,0,0,1,.651,2.885,5.1,5.1,0,0,1-.937,3.1,4.114,4.114,0,0,1-2.6,1.874v2.165H3.751V20.207a16.144,16.144,0,0,1-3.32-.719L.722,15.37a21.385,21.385,0,0,0,4.184.8c.8,0,1.155-.289,1.155-1.008,0-.364-.215-.651-.648-.939A6.851,6.851,0,0,0,3.9,13.28c-.577-.289-1.155-.651-1.8-1.013" transform="translate(61.415 19.845)" fill="#eaf18b"/>
          <path id="Path_3069" data-name="Path 3069" d="M119.579,7H117.7V1.8h-.8V.648L118.062,0h1.517Zm0,44.526H117.7v-5.2h-.8V45.174l1.155-.648h1.517Zm-116.909,0H.793v-5.2H0V45.174l1.155-.648H2.669ZM2.669,7H.793V1.8H0V.648L1.155,0H2.669Z" transform="translate(7.073 5.197)" fill="#eaf18b"/>
        </g>
      </g>
      <g id="Group_9929" data-name="Group 9929" transform="translate(-22025.502 -20796)">
        <g id="Group_9930" data-name="Group 9930" transform="translate(0 0)">
          <path id="Path_3055" data-name="Path 3055" d="M55.746,30.73C51.2,25.607,45.282,21.494,39.219,17.452c3.9-6.5,9.742-8.372,18.4-3.682,5.774-6.134,12.918-5.05,20.855,0,7.433-3.029,14.291-3.247,19.918,2.094-6.64,3.968-12.989,8.3-18.112,13.855-3.971,4.257-11.837,12.341-4.981,16.6,26.7,16.309,69.714,88.619,19.269,97.569-19.991,6.5-31.464,7.215-49.5,0-23.744,2.021-29.734-9.238-25.619-28.217C17.715,90.7,38.93,58.152,59.643,44.585c5.63-3.751-.506-10.031-3.9-13.855" transform="translate(-18.249 -9.566)" fill="#dbbd9a" fill-rule="evenodd"/>
          <path id="Path_3056" data-name="Path 3056" d="M94.571,116.789c-19.989,6.5-31.464,7.217-49.5,0-23.742,2.021-29.734-9.238-25.619-28.217-1.3-18.834,10.464-41.928,25.186-58.022-11.908,15.661-20.64,38.1-12.847,55.568-6.349,13.711,3.971,24.248,19.847,20.713,13.929,10.824,28.432,10.462,42.938,9.958" transform="translate(-18.249 17.53)" fill="#bea382" fill-rule="evenodd"/>
          <path id="Path_3057" data-name="Path 3057" d="M35.433,13.189a14.164,14.164,0,0,1,4.257-3.173c3.32,8.876,3.753,18.4,3.247,28.144-1.443-8.443-2.31-16.96-7.5-24.97m20.855,0c1.01-.36,1.948-.719,2.958-1.008A59.96,59.96,0,0,0,46.908,32.459c.793-7.506,2.452-14.506,9.38-19.269" transform="translate(3.941 -8.986)" fill="#bea382" fill-rule="evenodd"/>
          <path id="Path_3058" data-name="Path 3058" d="M54.245,36.6a24.14,24.14,0,1,1-24.1,24.175A24.176,24.176,0,0,1,54.245,36.6" transform="translate(-2.893 25.339)" fill="#ffd8a8" fill-rule="evenodd"/>
          <path id="Path_3059" data-name="Path 3059" d="M37.632,30.219a1.967,1.967,0,0,1-2.743-.433,1.87,1.87,0,0,1,.433-2.669c0-.073,12.845-9.887,21.073-3.971a1.913,1.913,0,0,1-2.236,3.1c-5.918-4.259-16.456,3.9-16.527,3.968" transform="translate(2.752 5.521)" fill="#dcb002"/>
          <path id="Path_3060" data-name="Path 3060" d="M37.175,25.363a1.846,1.846,0,0,1-2.023-1.8,1.95,1.95,0,0,1,1.808-2.094s11.47-.793,17.753,5.845a1.916,1.916,0,1,1-2.816,2.6c-4.979-5.268-14.721-4.546-14.721-4.546" transform="translate(3.571 5.761)" fill="#fbc800"/>
          <path id="Path_3061" data-name="Path 3061" d="M45.225,51.958V46.617a4.555,4.555,0,0,0-2.239.866,2.023,2.023,0,0,0-.866,1.661c0,1.3,1.084,2.236,3.1,2.814M48.4,60.69v5.845A5.327,5.327,0,0,0,51.07,65.6a2.2,2.2,0,0,0,.937-1.877c0-1.372-1.226-2.383-3.609-3.031M36.852,70.866V61.123H42.12v.362q0,4.221,3.249,4.761V59.68Q40.5,58.6,38.223,56.433a7.261,7.261,0,0,1-2.381-5.63A7.986,7.986,0,0,1,38.3,44.814c1.588-1.517,3.824-2.236,6.711-2.236V39.4h3.609v3.247a10.619,10.619,0,0,1,3.247,1.01v-1.37h5.2V50.8H52.007v-.289c0-2.454-1.226-3.68-3.753-3.68V52.9c6.5,1.515,9.671,4.546,9.671,9.236a8.006,8.006,0,0,1-2.381,6.207c-1.588,1.515-3.9,2.236-6.929,2.236v4.257H45.007V70.577a8.96,8.96,0,0,1-2.887-.793v1.081Z" transform="translate(4.469 28.959)" fill="#35342b"/>
        </g>
      </g>
    </g>
  </g>
</svg>
