<svg xmlns="http://www.w3.org/2000/svg" width="250" height="250" viewBox="0 0 250 250">
  <g id="Group_9913" data-name="Group 9913" transform="translate(0 -0.001)">
    <g id="Group_9918" data-name="Group 9918">
      <path id="Path_2982" data-name="Path 2982" d="M250,125A125,125,0,1,1,125,0,125,125,0,0,1,250,125" transform="translate(0 0)" fill="#ff9e48"/>
      <rect id="Rectangle_611" data-name="Rectangle 611" width="180.269" height="5.828" transform="translate(33.711 167.637)" fill="#c7c9cb"/>
      <rect id="Rectangle_612" data-name="Rectangle 612" width="174.052" height="81.588" transform="translate(36.818 86.05)" fill="#c4bc9d"/>
      <rect id="Rectangle_613" data-name="Rectangle 613" width="187.262" height="5.827" transform="translate(30.213 173.465)" fill="#e0e1e3"/>
      <rect id="Rectangle_614" data-name="Rectangle 614" width="180.269" height="5.827" transform="translate(33.711 80.028)" fill="#171a1c"/>
      <path id="Path_2984" data-name="Path 2984" d="M184.627,35.492H44.762L23.784,65.215H204.053Z" transform="translate(9.927 14.814)" fill="#232629"/>
      <rect id="Rectangle_615" data-name="Rectangle 615" width="38.462" height="73.041" transform="translate(132.392 94.578)" fill="#291410"/>
      <rect id="Rectangle_616" data-name="Rectangle 616" width="34.577" height="70.321" transform="translate(134.336 97.298)" fill="#3b2317"/>
      <rect id="Rectangle_617" data-name="Rectangle 617" width="25.408" height="51.672" transform="translate(138.919 106.621)" fill="#1f0f06"/>
      <rect id="Rectangle_618" data-name="Rectangle 618" width="23.116" height="49.342" transform="translate(140.065 107.787)" fill="#34b4b1"/>
      <rect id="Rectangle_619" data-name="Rectangle 619" width="9.679" height="47.399" transform="translate(141.716 108.759)" fill="#62bfb2"/>
      <path id="Path_2985" data-name="Path 2985" d="M118.986,101.5a1.127,1.127,0,1,1-2.254,0V89.577a1.127,1.127,0,1,1,2.254,0Z" transform="translate(48.722 36.918)" fill="#ffbc00"/>
      <rect id="Rectangle_620" data-name="Rectangle 620" width="45.067" height="47.01" transform="translate(79.28 104.8)" fill="#7a8770"/>
      <rect id="Rectangle_621" data-name="Rectangle 621" width="41.209" height="42.985" transform="translate(81.208 106.813)" fill="#291410"/>
      <rect id="Rectangle_622" data-name="Rectangle 622" width="33.707" height="35.161" transform="translate(84.96 110.725)" fill="#34b4b1"/>
      <rect id="Rectangle_623" data-name="Rectangle 623" width="9.876" height="28.944" transform="translate(86.567 111.988)" fill="#62bfb2"/>
      <rect id="Rectangle_624" data-name="Rectangle 624" width="9.876" height="28.944" transform="translate(107.373 111.988)" fill="#62bfb2"/>
      <rect id="Rectangle_625" data-name="Rectangle 625" width="3.164" height="38.852" transform="translate(100.232 108.879)" fill="#291410"/>
      <rect id="Rectangle_626" data-name="Rectangle 626" width="17.849" height="1.534" transform="translate(83.952 120.254)" fill="#291410"/>
      <rect id="Rectangle_627" data-name="Rectangle 627" width="17.848" height="1.534" transform="translate(102.773 120.254)" fill="#291410"/>
      <path id="Path_2986" data-name="Path 2986" d="M70.229,86.161a.767.767,0,0,1-.757.777h-5.91a.778.778,0,0,1,0-1.555h5.91a.768.768,0,0,1,.757.778" transform="translate(26.214 35.638)" fill="#ffd400"/>
      <path id="Path_2987" data-name="Path 2987" d="M83.177,86.161a.766.766,0,0,1-.755.777h-5.91a.778.778,0,0,1,0-1.555h5.91a.768.768,0,0,1,.755.778" transform="translate(31.619 35.638)" fill="#ffd400"/>
      <rect id="Rectangle_628" data-name="Rectangle 628" width="28.334" height="47.01" transform="translate(176.391 104.8)" fill="#7a8770"/>
      <rect id="Rectangle_629" data-name="Rectangle 629" width="24.386" height="42.985" transform="translate(178.321 106.813)" fill="#291410"/>
      <rect id="Rectangle_630" data-name="Rectangle 630" width="16.843" height="35.161" transform="translate(182.07 110.725)" fill="#34b4b1"/>
      <rect id="Rectangle_631" data-name="Rectangle 631" width="9.876" height="28.944" transform="translate(183.679 111.988)" fill="#62bfb2"/>
      <rect id="Rectangle_632" data-name="Rectangle 632" width="17.849" height="1.534" transform="translate(181.064 120.254)" fill="#291410"/>
      <path id="Path_2988" data-name="Path 2988" d="M138.744,86.161a.766.766,0,0,1-.755.777h-5.91a.778.778,0,0,1,0-1.555h5.91a.768.768,0,0,1,.755.778" transform="translate(54.812 35.638)" fill="#ffd400"/>
      <rect id="Rectangle_633" data-name="Rectangle 633" width="28.334" height="47.01" transform="translate(44.588 104.8)" fill="#7a8770"/>
      <rect id="Rectangle_634" data-name="Rectangle 634" width="24.388" height="42.985" transform="translate(46.517 106.813)" fill="#291410"/>
      <rect id="Rectangle_635" data-name="Rectangle 635" width="16.843" height="35.161" transform="translate(50.269 110.725)" fill="#34b4b1"/>
      <rect id="Rectangle_636" data-name="Rectangle 636" width="9.876" height="28.944" transform="translate(51.876 111.988)" fill="#62bfb2"/>
      <rect id="Rectangle_637" data-name="Rectangle 637" width="17.849" height="1.534" transform="translate(49.263 120.254)" fill="#291410"/>
      <path id="Path_2989" data-name="Path 2989" d="M45.754,86.161a.767.767,0,0,1-.757.777H39.086a.778.778,0,0,1,0-1.555H45a.768.768,0,0,1,.757.778" transform="translate(15.999 35.638)" fill="#ffd400"/>
    </g>
  </g>
</svg>
