<svg xmlns="http://www.w3.org/2000/svg" xmlns:xlink="http://www.w3.org/1999/xlink" width="18" height="18.002" viewBox="0 0 18 18.002">
  <defs>
    <clipPath id="clip-path">
      <rect id="Rectangle_578" data-name="Rectangle 578" width="18" height="18.002" fill="none"/>
    </clipPath>
  </defs>
  <g id="Group_9842" data-name="Group 9842" transform="translate(0 0)">
    <g id="Group_9841" data-name="Group 9841" transform="translate(0 0)" clip-path="url(#clip-path)">
      <path id="Path_2956" data-name="Path 2956" d="M6.825.734V5.709L2.742,3.666A9.025,9.025,0,0,1,6.825.734" transform="translate(-0.82 -0.219)" fill="#04247b"/>
      <path id="Path_2957" data-name="Path 2957" d="M21.193,3.667,17.11,5.71V.735a9.014,9.014,0,0,1,4.083,2.932" transform="translate(-5.115 -0.22)" fill="#04247b"/>
      <path id="Path_2958" data-name="Path 2958" d="M6.825,17.85v4.973a9.014,9.014,0,0,1-4.083-2.932Z" transform="translate(-0.82 -5.336)" fill="#04247b"/>
      <path id="Path_2959" data-name="Path 2959" d="M21.193,19.891a9.014,9.014,0,0,1-4.083,2.932V17.85Z" transform="translate(-5.115 -5.336)" fill="#04247b"/>
      <path id="Path_2960" data-name="Path 2960" d="M18,9A8.843,8.843,0,0,1,17.487,12H14.969l2.076,1.04a9.006,9.006,0,0,1-.967,1.518l-4.083-2.041v4.973a8.446,8.446,0,0,1-1.194.334,9.012,9.012,0,0,1-3.6,0,8.5,8.5,0,0,1-1.2-.334V12.514L1.922,14.555c-.125-.159-.246-.325-.361-.495L5.688,12H3L.949,13.023A8.994,8.994,0,0,1,.513,6.005h2.5L.953,4.974a9.134,9.134,0,0,1,.969-1.527L6.005,5.491V.515A8.6,8.6,0,0,1,7.2.182a9.012,9.012,0,0,1,3.6,0,8.541,8.541,0,0,1,1.194.334V5.491l4.083-2.044c.125.158.244.321.358.487L12.3,6.005h2.69l2.061-1.031A8.855,8.855,0,0,1,17.821,7.2,9.112,9.112,0,0,1,18,9" transform="translate(0 0)" fill="#fff"/>
      <path id="Path_2961" data-name="Path 2961" d="M3.235,8.126H.731a8.843,8.843,0,0,1,.44-1.032Z" transform="translate(-0.219 -2.121)" fill="#ce152a"/>
      <path id="Path_2962" data-name="Path 2962" d="M23.87,17.112a8.97,8.97,0,0,1-.442,1.04l-2.076-1.04Z" transform="translate(-6.383 -5.116)" fill="#ce152a"/>
      <path id="Path_2963" data-name="Path 2963" d="M22.29,6.651,20.228,7.683h-2.69l4.14-2.072a8.655,8.655,0,0,1,.612,1.04" transform="translate(-5.243 -1.677)" fill="#ce152a"/>
      <path id="Path_2964" data-name="Path 2964" d="M6.093,17.112,1.965,19.176a8.9,8.9,0,0,1-.611-1.038L3.4,17.112Z" transform="translate(-0.405 -5.116)" fill="#ce152a"/>
      <path id="Path_2965" data-name="Path 2965" d="M18,9a9.1,9.1,0,0,1-.179,1.8H10.8v7.02a9.012,9.012,0,0,1-3.6,0V10.8H.182a9.012,9.012,0,0,1,0-3.6H7.2V.182a9.012,9.012,0,0,1,3.6,0V7.2h7.02A9.112,9.112,0,0,1,18,9" transform="translate(0 0)" fill="#ce152a"/>
    </g>
  </g>
</svg>
