<svg xmlns="http://www.w3.org/2000/svg" width="20.739" height="24" viewBox="0 0 20.739 24">
  <g id="noun-location-6549235" transform="translate(-10.663 -7.307)">
    <path id="Path_2974" data-name="Path 2974" d="M23.766,28.859a.52.52,0,0,0,.851,0s6.211-9.277,6.273-9.368c3.594-5.071-.355-12.265-6.7-12.183a7.956,7.956,0,0,0-8.057,7.831,7.591,7.591,0,0,0,1.428,4.453l6.206,9.268Zm.424-17.1a3.581,3.581,0,0,1,3.631,3.528c-.178,4.675-7.084,4.674-7.261,0A3.581,3.581,0,0,1,24.19,11.763Z" transform="translate(-3.159 0)" fill="#283bbe"/>
    <path id="Path_2975" data-name="Path 2975" d="M25.807,40.83l-3.552,4.744a1.6,1.6,0,0,1-2.444,0l-3.553-4.746c-3.451.583-5.6,1.762-5.6,3.16,0,2.3,5.342,3.541,10.369,3.541S31.4,46.289,31.4,43.989c0-1.4-2.144-2.577-5.594-3.16Z" transform="translate(0 -16.223)" fill="#283bbe"/>
  </g>
</svg>
